<?xml version="1.0" encoding="UTF-8"?>
<svg id="Layer_1" xmlns="http://www.w3.org/2000/svg" version="1.1" viewBox="0 0 547.55 337.62">
  <!-- Generator: Adobe Illustrator 29.8.1, SVG Export Plug-In . SVG Version: 2.1.1 Build 2)  -->
  <defs>
    <style>
      .st0 {
        fill: #194071;
      }

      .st1 {
        fill: #02a9df;
      }
    </style>
  </defs>
  <g>
    <path class="st0" d="M136.81,72.92c-3.41,3.26-8.29,4.89-14.66,4.89-5.46,0-10.12-1.28-13.98-3.83,0,.85-.05,1.53-.15,2.03-.25.8-1.05,1.2-2.41,1.2v-15.94h2.93c.2,2.66.75,5.01,1.65,7.07,2.16,4.86,5.89,7.29,11.2,7.29,1.4,0,2.68-.2,3.83-.6,3.21-1.2,4.81-3.61,4.81-7.22,0-1.05-.23-2.08-.68-3.08-1.05-2.1-3.73-4.28-8.04-6.54-4.81-2.46-7.52-3.88-8.12-4.28-4.76-2.96-7.14-6.52-7.14-10.67,0-2.81.98-5.24,2.93-7.29,3.06-3.16,7.62-4.74,13.68-4.74,4.61,0,9,.98,13.16,2.93,0-.45.03-.85.08-1.2.25-.95,1.08-1.43,2.48-1.43v13.61h-2.93c-.05-2.71-.7-5.04-1.95-6.99-2.05-3.11-5.14-4.66-9.25-4.66-1.05,0-2.05.15-3.01.45-2.86.95-4.28,2.91-4.28,5.86,0,1.15.25,2.26.75,3.31,1.05,2.16,3.68,4.34,7.89,6.54,4.61,2.46,7.24,3.86,7.89,4.21,4.56,2.96,6.84,6.52,6.84,10.67,0,3.31-1.18,6.11-3.53,8.42Z"/>
    <path class="st0" d="M165,70.96c-.25.7-.58,1.38-.98,2.03-2,3.21-5.14,4.81-9.4,4.81-1.4,0-2.68-.18-3.83-.53-3.91-1.25-5.86-4.11-5.86-8.57.05-6.57,6.52-9.97,19.4-10.22v-4.89c0-1.45-.1-2.71-.3-3.76-.5-2.86-1.93-4.28-4.28-4.28-.7,0-1.33.13-1.88.38-.85.5-1.55,1.75-2.1,3.76-.2.7-.35,1.2-.45,1.5-.75,2.1-2.21,3.16-4.36,3.16-.5,0-.98-.08-1.43-.23-1.85-.5-2.78-1.73-2.78-3.68,0-.85.23-1.65.68-2.41,1.75-2.96,6.04-4.44,12.85-4.44,1.75,0,3.38.18,4.89.53,5.81,1.45,8.72,5.31,8.72,11.58v15.71c0,2.41.55,3.66,1.65,3.76,1.45-.05,2.33-1.8,2.63-5.26l1.95.08c-.15,1.55-.38,2.83-.68,3.83-.9,2.66-3.18,3.98-6.84,3.98-4.01-.25-6.54-2.53-7.59-6.84ZM159.74,74.34c2.1-.8,3.63-2.96,4.59-6.47v-7.29c-2.26.1-4.11.38-5.56.83-2.71,1-4.06,3.16-4.06,6.47.05,4.36,1.33,6.59,3.83,6.69.35,0,.75-.08,1.2-.23Z"/>
    <path class="st0" d="M198.6,75.17c.65.1.98.73.98,1.88h-17.59v-1.95c.4,0,.78-.03,1.13-.08,2.16-.25,3.23-1.53,3.23-3.83v-24.51h-4.36v-1.95h13.38l.38,5.86c.45-.9,1.05-1.78,1.8-2.63,2.56-2.91,5.66-4.36,9.32-4.36,1.3,0,2.56.2,3.76.6,4.41,1.55,6.62,5.44,6.62,11.65v19.24h2.48c.3,0,.6.03.9.08.65.1.98.73.98,1.88h-17.37v-1.95c.7,0,1.3-.08,1.8-.23,1.1-.35,1.65-1.58,1.65-3.68v-16.61c0-.7-.05-1.38-.15-2.03-.5-3.36-2.18-5.04-5.04-5.04-.75,0-1.48.18-2.18.53-2.56,1.25-4.01,3.86-4.36,7.82l-.08,19.24h1.88c.3,0,.58.03.83.08Z"/>
    <path class="st0" d="M261.08,31.95c5.56,0,10.42,1.33,14.58,3.98,6.31,4.11,9.47,10.35,9.47,18.72,0,6.57-2.21,11.93-6.62,16.09-4.51,4.21-10.25,6.31-17.22,6.31h-22.4v-2.03h6.01v-41.05h-6.01v-2.03h22.18ZM255.44,33.98v41.05h5.71c2.36,0,4.34-.48,5.94-1.43,4.16-2.46,6.24-8.9,6.24-19.32,0-5.21-.5-9.4-1.5-12.55-1.75-5.16-5.26-7.74-10.52-7.74h-5.86Z"/>
    <path class="st0" d="M307.16,75.17c.65.1.98.73.98,1.88h-18.49v-1.95c.65,0,1.23-.05,1.73-.15,1.75-.3,2.63-1.55,2.63-3.76v-24.51h-4.36v-1.95h13.91v30.37h2.78c.3,0,.58.03.83.08ZM303.48,37.58c-1.05,1.85-2.68,2.78-4.89,2.78-.9,0-1.78-.23-2.63-.68-1.95-1-2.93-2.61-2.93-4.81,0-.95.23-1.85.68-2.71,1.1-1.95,2.73-2.93,4.89-2.93.95,0,1.85.25,2.71.75,1.95,1.05,2.93,2.68,2.93,4.89,0,.95-.25,1.85-.75,2.71Z"/>
    <path class="st0" d="M341.59,71.64c-2.56,4.11-6.77,6.16-12.63,6.16-3.31,0-6.26-.68-8.87-2.03-5.46-2.86-8.19-7.92-8.19-15.19,0-4.46,1.2-8.19,3.61-11.2,3.16-3.86,7.57-5.79,13.23-5.79,3.11,0,5.89.53,8.34,1.58,4.36,1.95,6.54,5.06,6.54,9.32,0,.85-.15,1.63-.45,2.33-1.3,2.81-5.99,4.08-14.06,3.83l-6.92-.23c.05,2.91.3,5.41.75,7.52,1.15,5.11,3.73,7.67,7.74,7.67,1.25,0,2.48-.23,3.68-.68,3.01-1.1,5.21-3.18,6.62-6.24l1.8.6c-.3.8-.7,1.58-1.2,2.33ZM322.19,58.26l4.81.23c2,.1,3.51-.03,4.51-.38,1.4-.55,2.1-2,2.1-4.36-.05-5.36-1.68-8.09-4.89-8.19-4.01.15-6.19,4.39-6.54,12.7Z"/>
    <path class="st0" d="M372.56,45.85c.2-.55.43-1.1.68-1.65,1.45-3.01,3.48-4.51,6.09-4.51.95,0,1.83.18,2.63.53,1.75.75,2.63,2.03,2.63,3.83,0,.25-.03.5-.08.75-.35,1.4-1.28,2.1-2.78,2.1-.65,0-1.35-.3-2.1-.9-.95-.85-1.75-1.28-2.41-1.28-1.2.05-2.26.78-3.16,2.18,2.71,2.36,4.08,5.36,4.13,9.02,0,2.71-.8,5.16-2.41,7.37-2.81,3.76-6.97,5.64-12.48,5.64l-8.04-.08c-.2,0-.4.03-.6.08-1.25.15-1.88.8-1.88,1.95,0,.15.03.3.08.45.25,1.1,1.03,1.68,2.33,1.73l15.56.3c.7,0,1.38.05,2.03.15,5.51.7,8.27,3.58,8.27,8.65,0,1.3-.38,2.56-1.13,3.76-2.41,3.86-7.72,5.79-15.94,5.79-3.41,0-6.31-.45-8.72-1.35-3.56-1.35-5.34-3.38-5.34-6.09,0-1.5.65-3.03,1.95-4.59-1.8-1.5-2.73-3.46-2.78-5.86,0-1,.2-2,.6-3.01,1.15-2.66,3.21-3.96,6.16-3.91h.08c-.7-.4-1.38-.85-2.03-1.35-3.51-2.71-5.26-5.86-5.26-9.47,0-2.56.75-4.86,2.26-6.92,2.71-3.71,6.97-5.56,12.78-5.56,3.51,0,6.47.75,8.87,2.26ZM370.46,89.08c4.66-.9,6.99-2.53,6.99-4.89,0-.5-.1-.93-.3-1.28-.5-.9-2.21-1.35-5.11-1.35l-15.19-.15c-1.1,0-2.16-.2-3.16-.6-.75,1.05-1.13,2.1-1.13,3.16,0,.55.13,1.1.38,1.65,1.25,2.71,4.94,4.06,11.05,4.06,2.36,0,4.51-.2,6.47-.6ZM358.73,63.52c.6,2.31,2.13,3.46,4.59,3.46,1.5,0,2.68-.43,3.53-1.28,1.2-1.35,1.8-4.56,1.8-9.62,0-3.31-.18-5.66-.53-7.07-.65-2.31-2.23-3.46-4.74-3.46-1.55,0-2.73.45-3.53,1.35-1.1,1.3-1.65,4.44-1.65,9.4,0,3.46.18,5.86.53,7.22Z"/>
    <path class="st0" d="M414.43,47.13c3.96,3.16,5.94,7.54,5.94,13.16,0,4.21-1.25,7.92-3.76,11.13-3.36,4.26-7.99,6.39-13.91,6.39-4.31,0-8.02-1.3-11.13-3.91-3.91-3.31-5.86-7.79-5.86-13.46,0-4.01,1.15-7.52,3.46-10.52,3.31-4.21,8.04-6.31,14.21-6.31,4.31,0,7.99,1.18,11.05,3.53ZM396.92,71.04c.9,3.21,2.91,4.81,6.01,4.81,1.75,0,3.18-.53,4.28-1.58,1.9-1.9,2.86-6.52,2.86-13.83,0-4.56-.3-7.89-.9-10-.9-3.26-2.96-4.89-6.16-4.89-1.9,0-3.38.58-4.44,1.73-1.7,1.95-2.56,6.44-2.56,13.46,0,4.71.3,8.14.9,10.3Z"/>
  </g>
  <g>
    <path class="st1" d="M162.86,94.43c4.11,0,7.69.98,10.76,2.94,4.66,3.03,6.99,7.64,6.99,13.82,0,4.85-1.63,8.8-4.88,11.87-3.33,3.11-7.57,4.66-12.71,4.66h-16.54v-1.5h4.44v-30.3h-4.44v-1.5h16.37ZM158.7,95.93v30.3h4.22c1.74,0,3.2-.35,4.38-1.05,3.07-1.81,4.61-6.57,4.61-14.26,0-3.85-.37-6.94-1.11-9.27-1.29-3.81-3.88-5.72-7.77-5.72h-4.33Z"/>
    <path class="st1" d="M196.88,126.34c.48.07.72.54.72,1.39h-13.65v-1.44c.48,0,.91-.04,1.28-.11,1.29-.22,1.94-1.15,1.94-2.77v-18.09h-3.22v-1.44h10.27v22.42h2.05c.22,0,.43.02.61.06ZM194.16,98.6c-.78,1.37-1.98,2.05-3.61,2.05-.67,0-1.31-.17-1.94-.5-1.44-.74-2.16-1.92-2.16-3.55,0-.7.17-1.37.5-2,.81-1.44,2.02-2.16,3.61-2.16.7,0,1.37.18,2,.55,1.44.78,2.16,1.98,2.16,3.61,0,.7-.18,1.37-.55,2Z"/>
    <path class="st1" d="M209.58,126.73c2.48,0,3.9-.89,4.27-2.66.04-.26.06-.5.06-.72,0-1.89-1.18-3.46-3.55-4.72-.52-.3-1.35-.68-2.5-1.17-2.77-1.22-4.61-2.35-5.49-3.38-.96-1.11-1.44-2.42-1.44-3.94,0-3.14,1.72-5.27,5.16-6.38,1.44-.48,3.05-.72,4.83-.72,2.89,0,5.14.52,6.77,1.55,0-1.11.33-1.72,1-1.83.15-.04.3-.06.44-.06v6.94h-1.78c-.15-3.37-1.98-5.07-5.49-5.11-2.37,0-3.83.78-4.38,2.33-.11.37-.17.74-.17,1.11,0,1.59,1.11,2.94,3.33,4.05.44.26,1.18.61,2.22,1.05,2.89,1.29,4.81,2.48,5.77,3.55,1.11,1.26,1.66,2.76,1.66,4.49,0,3.22-1.66,5.38-4.99,6.49-1.37.44-2.9.67-4.61.67-3.26,0-5.99-.57-8.21-1.72,0,.96-.24,1.52-.72,1.66-.22.04-.48.06-.78.06v-8.43h1.89c.07,4.55,2.31,6.84,6.71,6.88Z"/>
    <path class="st1" d="M222.79,104.14h3.83v-5.27l7.05-1.17v6.44h7.32v1.44h-7.32v16.81c0,.48.04.94.11,1.39.3,1.92,1.13,2.89,2.5,2.89.22,0,.44-.02.67-.06,1.44-.3,2.53-1.94,3.27-4.94l1.5.22c-.3,1.52-.7,2.74-1.22,3.66-1.07,1.85-3.03,2.77-5.88,2.77-.44,0-.89-.02-1.33-.06-4.44-.52-6.66-3.46-6.66-8.82v-13.87h-3.83v-1.44Z"/>
    <path class="st1" d="M258.08,126.34c.48.07.72.54.72,1.39h-15.7v-1.44c.48,0,.91-.04,1.28-.11,1.29-.22,1.94-1.15,1.94-2.77v-18.09h-3.22v-1.44h9.71l.39,5.16c.41-1.04,1-2,1.78-2.89,1.74-1.81,3.75-2.72,6.05-2.72.48,0,.94.06,1.39.17,1.81.48,2.72,1.65,2.72,3.5,0,.52-.11,1.02-.33,1.5-.63,1.41-1.68,2.11-3.16,2.11-.44,0-.85-.06-1.22-.17-.78-.3-1.5-1.04-2.16-2.22-.48-.85-.92-1.28-1.33-1.28-.22,0-.46.06-.72.17-1.63.85-2.57,3.22-2.83,7.1v11.99h4.11c.22,0,.43.02.61.06Z"/>
    <path class="st1" d="M279.72,126.34c.48.07.72.54.72,1.39h-13.65v-1.44c.48,0,.91-.04,1.28-.11,1.29-.22,1.94-1.15,1.94-2.77v-18.09h-3.22v-1.44h10.27v22.42h2.05c.22,0,.43.02.61.06ZM277,98.6c-.78,1.37-1.98,2.05-3.61,2.05-.67,0-1.31-.17-1.94-.5-1.44-.74-2.16-1.92-2.16-3.55,0-.7.17-1.37.5-2,.81-1.44,2.02-2.16,3.61-2.16.7,0,1.37.18,2,.55,1.44.78,2.16,1.98,2.16,3.61,0,.7-.18,1.37-.55,2Z"/>
    <path class="st1" d="M286.49,106.86c2.44-2.55,5.62-3.83,9.54-3.83,2.89,0,5.29.57,7.21,1.72,1.96,1.22,2.94,2.65,2.94,4.27,0,.3-.04.59-.11.89-.44,1.41-1.61,2.11-3.5,2.11-.89,0-1.59-.18-2.11-.55-.67-.48-1.11-1.57-1.33-3.27-.11-.7-.2-1.2-.28-1.5-.37-1.52-1.37-2.28-3-2.28-.81,0-1.52.17-2.11.5-1.96,1.18-2.94,4.88-2.94,11.1,0,3.11.31,5.51.94,7.21.85,2.29,2.55,3.44,5.11,3.44.96,0,1.92-.15,2.89-.44,2.48-.78,4.24-2.28,5.27-4.49l1.44.39c-.37.96-.91,1.85-1.61,2.66-2.07,2.33-5.03,3.5-8.88,3.5-2.48,0-4.68-.46-6.6-1.39-4.11-2.03-6.16-5.75-6.16-11.15,0-3.63,1.09-6.58,3.27-8.88Z"/>
    <path class="st1" d="M307.58,104.14h3.83v-5.27l7.05-1.17v6.44h7.32v1.44h-7.32v16.81c0,.48.04.94.11,1.39.3,1.92,1.13,2.89,2.5,2.89.22,0,.44-.02.67-.06,1.44-.3,2.53-1.94,3.27-4.94l1.5.22c-.3,1.52-.7,2.74-1.22,3.66-1.07,1.85-3.03,2.77-5.88,2.77-.44,0-.89-.02-1.33-.06-4.44-.52-6.66-3.46-6.66-8.82v-13.87h-3.83v-1.44Z"/>
    <path class="st1" d="M362.84,101.43c-4.85,7.25-8.21,14.74-10.1,22.47-.85,3.48-1.41,5.49-1.66,6.05-.67,1.48-1.87,2.22-3.61,2.22-.48,0-.94-.06-1.39-.17-1.78-.48-2.66-1.63-2.66-3.44,0-.63.09-1.29.28-2,.63-2.15,2.72-5.6,6.27-10.38,5.77-7.81,9.03-12.24,9.77-13.32h-13.21c-.81,0-1.44.04-1.89.11-1.11.18-1.92.94-2.44,2.28l-1,2.55h-1.39l.11-10.04h24.3v1.66c-.44.63-.91,1.29-1.39,2Z"/>
  </g>
  <g>
    <path class="st0" d="M63.12,135.96c4.77,0,8.94,1.14,12.51,3.42,5.42,3.53,8.13,8.88,8.13,16.06,0,5.63-1.89,10.24-5.68,13.8-3.87,3.61-8.79,5.42-14.77,5.42h-19.22v-1.74h5.16v-35.22h-5.16v-1.74h19.03ZM58.28,137.7v35.22h4.9c2.02,0,3.72-.41,5.1-1.23,3.57-2.11,5.35-7.63,5.35-16.58,0-4.47-.43-8.06-1.29-10.77-1.51-4.43-4.52-6.64-9.03-6.64h-5.03Z"/>
    <path class="st0" d="M113.43,170.02c-2.19,3.53-5.81,5.29-10.84,5.29-2.84,0-5.38-.58-7.61-1.74-4.69-2.45-7.03-6.79-7.03-13.03,0-3.83,1.03-7.03,3.1-9.61,2.71-3.31,6.49-4.97,11.35-4.97,2.67,0,5.05.45,7.16,1.35,3.74,1.68,5.61,4.34,5.61,8,0,.73-.13,1.4-.39,2-1.12,2.41-5.14,3.5-12.06,3.29l-5.93-.19c.04,2.49.26,4.64.65,6.45.99,4.39,3.2,6.58,6.64,6.58,1.08,0,2.13-.19,3.16-.58,2.58-.95,4.47-2.73,5.68-5.35l1.55.52c-.26.69-.6,1.35-1.03,2ZM96.79,158.54l4.13.19c1.72.09,3.01-.02,3.87-.32,1.2-.47,1.81-1.72,1.81-3.74-.04-4.6-1.44-6.95-4.19-7.03-3.44.13-5.31,3.76-5.61,10.9Z"/>
    <path class="st0" d="M131.82,173.05c.56.09.84.62.84,1.61h-14.64v-1.68c.34,0,.67-.02.97-.06,1.85-.22,2.77-1.31,2.77-3.29v-21.03h-3.74v-1.68h11.48l.32,4.71c1.89-3.74,4.9-5.63,9.03-5.68.69,0,1.38.09,2.06.26,2.62.77,4.45,2.69,5.48,5.74,2.06-3.96,5.18-5.96,9.35-6,1.51,0,2.9.41,4.19,1.23,2.8,1.76,4.19,4.75,4.19,8.97v16.84h2.13c.26,0,.52.02.77.06.56.09.84.62.84,1.61h-14.71v-1.68c.69,0,1.23-.06,1.61-.19.82-.34,1.23-1.4,1.23-3.16v-14.26c0-1.08-.13-2.06-.39-2.97-.69-2.19-1.96-3.29-3.81-3.29-.43,0-.86.09-1.29.26-2.02.86-3.18,3.07-3.48,6.64v16.97h1.1c.26,0,.52.02.77.06.56.09.84.62.84,1.61h-13.68v-1.68c.69,0,1.23-.06,1.61-.19.82-.34,1.23-1.4,1.23-3.16v-14.26c0-1.16-.15-2.21-.45-3.16-.69-1.98-1.83-2.97-3.42-2.97-.56,0-1.12.15-1.68.45-1.98,1.03-3.1,3.25-3.35,6.64l-.06,16.64h1.16c.26,0,.49.02.71.06Z"/>
    <path class="st0" d="M195.42,148.99c3.4,2.71,5.1,6.47,5.1,11.29,0,3.61-1.08,6.79-3.23,9.55-2.88,3.66-6.86,5.48-11.93,5.48-3.7,0-6.88-1.12-9.55-3.35-3.35-2.84-5.03-6.69-5.03-11.55,0-3.44.99-6.45,2.97-9.03,2.84-3.61,6.9-5.42,12.19-5.42,3.7,0,6.86,1.01,9.48,3.03ZM180.39,169.51c.77,2.75,2.49,4.13,5.16,4.13,1.51,0,2.73-.45,3.68-1.35,1.63-1.63,2.45-5.59,2.45-11.87,0-3.91-.26-6.77-.77-8.58-.77-2.8-2.54-4.19-5.29-4.19-1.63,0-2.9.49-3.81,1.48-1.46,1.68-2.19,5.53-2.19,11.55,0,4.04.26,6.99.77,8.84Z"/>
    <path class="st0" d="M208.19,150.41c2.84-2.97,6.54-4.45,11.1-4.45,3.35,0,6.15.67,8.39,2,2.28,1.42,3.42,3.07,3.42,4.97,0,.34-.04.69-.13,1.03-.52,1.63-1.87,2.45-4.06,2.45-1.03,0-1.85-.22-2.45-.65-.77-.56-1.29-1.83-1.55-3.81-.13-.82-.24-1.4-.32-1.74-.43-1.76-1.59-2.64-3.48-2.64-.95,0-1.76.19-2.45.58-2.28,1.38-3.42,5.68-3.42,12.9,0,3.61.37,6.41,1.1,8.39.99,2.67,2.97,4,5.93,4,1.12,0,2.24-.17,3.35-.52,2.88-.9,4.92-2.64,6.13-5.23l1.68.45c-.43,1.12-1.05,2.15-1.87,3.1-2.41,2.71-5.85,4.06-10.32,4.06-2.88,0-5.44-.54-7.68-1.61-4.77-2.37-7.16-6.69-7.16-12.97,0-4.21,1.27-7.65,3.81-10.32Z"/>
    <path class="st0" d="M250.45,173.05c.56.09.84.62.84,1.61h-18.26v-1.68c.56,0,1.05-.04,1.48-.13,1.51-.26,2.26-1.33,2.26-3.23v-21.03h-3.74v-1.68h11.29l.45,6c.47-1.2,1.16-2.32,2.06-3.35,2.02-2.11,4.36-3.16,7.03-3.16.56,0,1.1.06,1.61.19,2.11.56,3.16,1.91,3.16,4.06,0,.6-.13,1.18-.39,1.74-.73,1.63-1.96,2.45-3.68,2.45-.52,0-.99-.06-1.42-.19-.9-.34-1.74-1.2-2.52-2.58-.56-.99-1.08-1.48-1.55-1.48-.26,0-.54.06-.84.19-1.89.99-2.99,3.74-3.29,8.26v13.93h4.77c.26,0,.49.02.71.06Z"/>
    <path class="st0" d="M277.47,169.44c-.22.6-.49,1.18-.84,1.74-1.72,2.75-4.41,4.13-8.06,4.13-1.2,0-2.3-.15-3.29-.45-3.35-1.08-5.03-3.53-5.03-7.35.04-5.63,5.59-8.56,16.64-8.77v-4.19c0-1.25-.09-2.32-.26-3.23-.43-2.45-1.66-3.68-3.68-3.68-.6,0-1.14.11-1.61.32-.73.43-1.33,1.51-1.81,3.23-.17.6-.3,1.03-.39,1.29-.65,1.81-1.89,2.71-3.74,2.71-.43,0-.84-.06-1.23-.19-1.59-.43-2.39-1.48-2.39-3.16,0-.73.19-1.42.58-2.06,1.51-2.54,5.18-3.81,11.03-3.81,1.51,0,2.9.15,4.19.45,4.99,1.25,7.48,4.56,7.48,9.93v13.48c0,2.06.47,3.14,1.42,3.23,1.25-.04,2-1.55,2.26-4.52l1.68.06c-.13,1.33-.32,2.43-.58,3.29-.77,2.28-2.73,3.42-5.87,3.42-3.44-.22-5.61-2.17-6.52-5.87ZM272.96,172.34c1.81-.69,3.12-2.54,3.93-5.55v-6.26c-1.94.09-3.53.32-4.77.71-2.32.86-3.48,2.71-3.48,5.55.04,3.74,1.14,5.66,3.29,5.74.3,0,.65-.06,1.03-.19Z"/>
    <path class="st0" d="M291.73,147.25h4.45v-6.13l8.19-1.35v7.48h8.51v1.68h-8.51v19.55c0,.56.04,1.1.13,1.61.34,2.24,1.31,3.35,2.9,3.35.26,0,.52-.02.77-.06,1.68-.34,2.95-2.26,3.81-5.74l1.74.26c-.34,1.76-.82,3.18-1.42,4.26-1.25,2.15-3.53,3.23-6.84,3.23-.52,0-1.03-.02-1.55-.06-5.16-.6-7.74-4.02-7.74-10.26v-16.13h-4.45v-1.68Z"/>
    <path class="st0" d="M330.69,173.05c.56.09.84.62.84,1.61h-15.87v-1.68c.56,0,1.05-.04,1.48-.13,1.51-.26,2.26-1.33,2.26-3.23v-21.03h-3.74v-1.68h11.93v26.06h2.39c.26,0,.49.02.71.06ZM327.53,140.8c-.9,1.59-2.3,2.39-4.19,2.39-.77,0-1.53-.19-2.26-.58-1.68-.86-2.52-2.24-2.52-4.13,0-.82.19-1.59.58-2.32.95-1.68,2.34-2.52,4.19-2.52.82,0,1.59.22,2.32.65,1.68.9,2.52,2.3,2.52,4.19,0,.82-.22,1.59-.65,2.32Z"/>
    <path class="st0" d="M338.56,150.41c2.84-2.97,6.54-4.45,11.1-4.45,3.35,0,6.15.67,8.39,2,2.28,1.42,3.42,3.07,3.42,4.97,0,.34-.04.69-.13,1.03-.52,1.63-1.87,2.45-4.06,2.45-1.03,0-1.85-.22-2.45-.65-.77-.56-1.29-1.83-1.55-3.81-.13-.82-.24-1.4-.32-1.74-.43-1.76-1.59-2.64-3.48-2.64-.95,0-1.76.19-2.45.58-2.28,1.38-3.42,5.68-3.42,12.9,0,3.61.37,6.41,1.1,8.39.99,2.67,2.97,4,5.93,4,1.12,0,2.24-.17,3.35-.52,2.88-.9,4.92-2.64,6.13-5.23l1.68.45c-.43,1.12-1.05,2.15-1.87,3.1-2.41,2.71-5.85,4.06-10.32,4.06-2.88,0-5.44-.54-7.68-1.61-4.77-2.37-7.16-6.69-7.16-12.97,0-4.21,1.27-7.65,3.81-10.32Z"/>
  </g>
  <g>
    <path class="st0" d="M395.13,175.36c-5.93,0-10.72-1.9-14.36-5.71-3.4-3.6-5.09-8.04-5.09-13.32,0-4.46,1.29-8.41,3.87-11.84,3.64-4.79,8.9-7.18,15.77-7.18,4.3,0,8.22.96,11.78,2.88-.04-.65-.02-1.19.06-1.6.2-.65.84-.98,1.9-.98l.18,12.09h-2.15c-.65-2.37-1.41-4.32-2.27-5.83-1.84-3.15-4.68-4.73-8.53-4.73-7.28.04-10.94,5.67-10.98,16.88,0,3.44.25,6.32.74,8.65,1.31,5.89,4.56,8.84,9.76,8.84,1.31,0,2.5-.14,3.56-.43,3.85-1.06,6.53-4.44,8.04-10.13h2.03v12.09c-.45,0-.82-.04-1.1-.12-.74-.16-1.08-1.02-1.04-2.58-3.89,2-7.94,3.01-12.15,3.01Z"/>
    <path class="st0" d="M427.9,173.21c.53.08.8.59.8,1.53h-17.12v-1.6c1.15,0,2.07-.08,2.76-.25,1.35-.37,2.03-1.39,2.03-3.07v-33.38h-4.79v-1.6h12.58v38.29h3.07c.25,0,.47.02.68.06Z"/>
    <path class="st0" d="M462.33,173.21c.49.12.74.63.74,1.53h-10.92l-.31-5.03-.37.74c-1.92,3.27-4.73,4.91-8.41,4.91-5.77-.04-8.69-3.38-8.78-10v-15.4h-3.56v-1.6h11.35v18.04c0,.57.04,1.13.12,1.66.41,2.74,1.78,4.11,4.11,4.11.61,0,1.23-.14,1.84-.43,2.05-1.02,3.21-3.13,3.5-6.32l.06-15.46h-3.01v-1.6h10.8v24.79h2.09c.29,0,.53.02.74.06Z"/>
    <path class="st0" d="M475.09,170.45l-.49,4.3h-9.39v-1.66c.53,0,1.02-.04,1.47-.12,1.35-.29,2.03-1.31,2.03-3.07v-33.38h-3.5v-1.66h11.29v18.84c2.13-4.13,5.3-6.22,9.51-6.26,2.09,0,3.99.59,5.71,1.78,3.31,2.33,4.97,6.16,4.97,11.48,0,4.09-1.06,7.47-3.19,10.13-2.41,3.03-5.63,4.54-9.63,4.54-3.68-.04-6.61-1.68-8.78-4.91ZM480.06,151.42c-2.37,1.92-3.56,5.69-3.56,11.29,0,2.17.23,4.07.68,5.71.94,3.52,2.74,5.28,5.4,5.28,3.76-.04,5.67-4.09,5.71-12.15,0-7.36-1.76-11.09-5.28-11.17-1.06,0-2.05.35-2.95,1.04Z"/>
  </g>
  <polygon class="st1" points="124.54 116.86 129.92 114.36 135.04 117.36 134.31 111.47 138.76 107.54 132.93 106.4 130.56 100.96 127.68 106.16 121.77 106.73 125.82 111.07 124.54 116.86"/>
  <polygon class="st1" points="378.62 116.86 384 114.36 389.12 117.36 388.4 111.47 392.84 107.54 387.01 106.4 384.64 100.96 381.76 106.16 375.86 106.73 379.9 111.07 378.62 116.86"/>
  <g>
    <path class="st1" d="M374.86,257.35c.1-2.52.14-5.04.21-8.01-.61.66-.9.95-1.17,1.27-1.72,2.09-3.52,4.13-5.12,6.31-1.23,1.68-2.52,2.16-4.59,1.55-2.99-.89-6.1-1.4-9.04-2.05,1.64,2.78,3.37,5.84,5.23,8.82.68,1.08.57,1.76-.19,2.77-2.04,2.71-3.89,5.55-6.06,8.68,3.42-.79,6.39-1.4,9.32-2.18,2.09-.56,3.82-.62,4.96,1.65.41.82,1.12,1.49,1.69,2.24,1.25,1.65,2.49,3.3,4,5.31.1-1.24.17-2.05.23-2.85.24-2.98.43-5.95.74-8.92.05-.48.49-1.14.91-1.32,2.61-1.07,5.26-2.02,7.89-3.03.8-.31,1.57-.67,2.75-1.18-2.88-1.14-5.33-2.13-7.79-3.08q-4.16-1.6-3.98-5.98Z"/>
    <path class="st1" d="M450.39,243.82c.2-1.82.04-3.68.04-5.53-.16-.06-.33-.11-.49-.17-1.38,1.63-2.8,3.24-4.13,4.92-.57.71-1.09.89-1.98.59-2.19-.76-4.43-1.4-6.95-2.19,1.2,2.4,2.23,4.47,3.28,6.53.5.97.32,1.72-.43,2.54-1.32,1.44-2.51,2.98-3.96,4.73,2.45-.29,4.61-.38,6.69-.85,1.41-.32,2.13.15,2.9,1.18,1.16,1.54,2.45,2.99,3.91,4.75.32-2.67.59-4.87.84-7.06.1-.92.45-1.4,1.48-1.64,1.96-.46,3.87-1.18,6.29-1.95-2.15-1.09-3.83-2-5.57-2.8-1.35-.62-2.09-1.37-1.9-3.04Z"/>
    <path class="st1" d="M261.81,251.9c-.27-.06-.75.02-.88.21-1.61,2.35-3.17,4.73-4.85,7.28,4.77-1.83,9.26-3.57,13.76-5.3,0-.14.02-.29.02-.43-2.68-.59-5.36-1.19-8.05-1.76Z"/>
    <path class="st1" d="M528.02,237.82c-5.29-4.46-10.39-9.17-15.92-13.31-17.6-13.21-36.65-23.78-57.45-31.13-14.08-4.98-28.53-8.3-43.38-9.74-14.36-1.4-28.74-1.52-43.13-.23-17.41,1.56-34.59,4.56-51.51,8.83-23.56,5.94-47,12.39-70.58,18.23-28.62,7.09-57.62,11.57-87.23,11.3-14.22-.13-28.35-1.26-42.33-3.79-18.82-3.4-36.86-9.17-53.97-17.84-7.91-4.01-15.22-8.83-22.04-14.45-.55-.46-1.06-.97-1.6-1.45,8.06,13.95,17.58,26.71,29.56,37.48,11.97,10.75,25.36,19.17,40.75,24.27-35.66,9.22-68.77,3.85-99.31-17.06.62.73,1.23,1.48,1.87,2.19,1.83,2,3.73,3.95,5.52,5.99,11.67,13.38,25.23,24.55,40.17,34.03,21.36,13.55,44.5,22.52,69.52,26.66,16.1,2.66,32.25,3.44,48.51,2.17,13.61-1.06,26.97-3.5,40.23-6.82,16.07-4.03,31.55-9.68,46.83-15.95,8.97-3.68,17.82-7.66,26.62-11.72,12.73-5.87,25.28-12.13,38.07-17.86,12.13-5.44,24.45-10.43,36.71-15.57,2.46-1.03,5.02-1.82,7.53-2.73-.34-.27-.6-.3-.85-.24-5.22,1.24-10.47,2.41-15.66,3.77-14.46,3.79-28.94,7.51-43.34,11.54-9.54,2.67-18.97,5.75-28.4,8.8-8.16,2.65-16.26,5.51-24.38,8.31-2.46.85-5.14,1.44-6.16,4.43-.17-.55-.33-1.1-.65-2.12-16.54,7-33,13.96-49.7,21.03.98-.74,1.65-1.42,2.45-1.82,3.11-1.54,6.27-2.98,9.41-4.47,6.6-3.13,13.18-6.32,19.82-9.37,5.54-2.54,11.17-4.89,16.72-7.39.57-.26,1.32-1,1.32-1.52,0-3.48-.19-6.96-.27-10.45-.02-.97-.43-1.47-1.34-1.8-2.5-.91-4.98-1.87-7.44-2.88-1.64-.67-3.22-1.46-5.17-2.36,4.43-1.56,8.37-3.01,12.35-4.33,1.11-.37,1.42-.99,1.48-2.04.23-4.25.52-8.51.79-12.75,2.71,3.07,5.52,6.06,8.08,9.25,1.11,1.37,2.12,1.34,3.57.92,3.74-1.1,7.51-2.07,11.52-3.17-.32.57-.5.9-.7,1.22-2.05,3.35-4.14,6.68-6.13,10.06-.29.5-.39,1.46-.1,1.9,1.81,2.78,3.75,5.47,5.69,8.25.65-.2,1.28-.37,1.91-.58,6.06-2.13,12.06-4.47,18.19-6.36,14.02-4.31,28.05-8.64,42.2-12.51,13.84-3.78,27.98-6.23,42.2-8.16,19.07-2.59,38.22-3.75,57.47-3.42,12.26.21,24.45,1.26,36.58,3.06,11.48,1.7,22.86,3.84,33.96,7.31,7.44,2.33,14.82,4.81,22.23,7.23-.35-.12-.69-.53-1.09-.86ZM148.99,260.39c-2.58-1.72-4.31-1.04-6.23.94-1.64,1.69-3.55,3.13-5.62,4.92.02-.79-.03-1.35.06-1.89.35-2.24.62-4.51,1.17-6.71.44-1.73-.22-2.75-1.55-3.58-2.2-1.38-4.42-2.74-6.62-4.11-.18-.11-.34-.27-.73-.57.89-.31,1.6-.65,2.34-.8,2.33-.46,4.67-.9,7.02-1.25.97-.15,1.42-.56,1.63-1.52.56-2.54,1.21-5.07,1.84-7.6.13-.52.29-1.02.58-2.03,1.3,2.36,2.38,4.32,3.45,6.29.05.1.08.21.13.31q1.64,3.48,5.39,3c2.39-.3,4.79-.56,7.69-.9-2.55,3.07-4.78,5.75-7.34,8.82,1.11,2.95,2.37,6.28,3.73,9.89-2.44-1.09-4.9-1.83-6.94-3.19ZM214.05,273.93c-4.24-1.78-8.46-3.61-12.67-5.45-.91-.4-1.52-.14-2.19.54-3.82,3.86-7.68,7.67-11.53,11.49-.11.11-.27.16-.72.41.36-3.55.67-6.78,1.02-10.02.24-2.26.48-4.52.79-6.77.15-1.1-.05-1.91-1.1-2.5-5-2.84-9.99-5.72-15.25-8.74.98-.22,1.79-.4,2.6-.59,4.85-1.12,9.72-2.21,14.54-3.43.61-.16,1.33-.98,1.5-1.62,1.29-4.93,2.45-9.9,3.65-14.85.13-.53.24-1.07.46-2.08.55.87.91,1.37,1.2,1.9,2.36,4.26,4.75,8.51,7.04,12.81.69,1.29,1.5,1.74,3.01,1.58,5.11-.55,10.25-.94,15.37-1.39.2-.02.41,0,.89,0-2.8,3.14-5.45,6.08-8.06,9.05-1.06,1.2-2.05,2.47-3.09,3.69-.64.75-.74,1.47-.3,2.42,2.12,4.45,4.16,8.93,6.23,13.4.13.29.23.59.56,1.41-1.6-.49-2.82-.76-3.96-1.24Z"/>
    <polygon class="st1" points="301.76 294.36 293.34 294.15 288.74 287.08 285.93 295.03 277.8 297.22 284.49 302.35 284.05 310.76 291 305.98 298.87 309 296.47 300.92 301.76 294.36"/>
    <polygon class="st1" points="487.45 247.22 486.93 245.47 485.86 246.94 484.04 246.9 485.11 248.37 484.5 250.09 486.24 249.53 487.68 250.64 487.68 248.81 489.18 247.78 487.45 247.22"/>
    <polygon class="st1" points="410.39 256.1 408.65 257.47 406.53 256.8 407.29 258.89 406.01 260.69 408.23 260.61 409.55 262.39 410.16 260.26 412.26 259.55 410.42 258.32 410.39 256.1"/>
    <polygon class="st1" points="324.1 281.49 322.35 282.86 320.24 282.2 321 284.28 319.71 286.09 321.93 286.01 323.25 287.79 323.86 285.65 325.96 284.95 324.12 283.71 324.1 281.49"/>
  </g>
</svg>