<?xml version="1.0" encoding="UTF-8"?>
<svg id="Layer_1" xmlns="http://www.w3.org/2000/svg" version="1.1" viewBox="0 0 264.93 109.43">
  <!-- Generator: Adobe Illustrator 29.8.1, SVG Export Plug-In . SVG Version: 2.1.1 Build 2)  -->
  <defs>
    <style>
      .st0 {
        fill: #194071;
      }

      .st1 {
        fill: #02a9df;
      }
    </style>
  </defs>
  <g>
    <path class="st1" d="M169.84,77.25h-30.13V0h30.13c24.28,0,41.06,16.66,41.06,38.41v.22c0,21.74-16.78,38.63-41.06,38.63ZM193.13,38.63c0-13.68-9.38-23.29-23.29-23.29h-13.13v46.57h13.13c13.91,0,23.29-9.38,23.29-23.07v-.22Z"/>
    <path class="st0" d="M95.17,77.25h-30.13V0h30.13c24.28,0,41.06,16.66,41.06,38.41v.22c0,21.74-16.78,38.63-41.06,38.63ZM118.45,38.63c0-13.68-9.38-23.29-23.29-23.29h-13.13v46.57h13.13c13.91,0,23.29-9.38,23.29-23.07v-.22Z"/>
    <path class="st0" d="M32.78,79.46c-11.7,0-23.51-4.08-32.78-12.36l10.04-12.03c6.95,5.74,14.24,9.38,23.07,9.38,6.95,0,11.15-2.76,11.15-7.28v-.22c0-4.3-2.65-6.51-15.56-9.82-15.56-3.97-25.6-8.28-25.6-23.62v-.22C3.09,9.27,14.35,0,30.13,0c11.26,0,20.86,3.53,28.69,9.82l-8.83,12.8c-6.84-4.74-13.57-7.62-20.09-7.62s-9.93,2.98-9.93,6.73v.22c0,5.08,3.31,6.73,16.66,10.15,15.67,4.08,24.5,9.71,24.5,23.18v.22c0,15.34-11.7,23.95-28.36,23.95Z"/>
    <path class="st1" d="M209.3,0h55.62v12.8l-34.65,64.45h-19.2l34.54-62.58h-36.31V0Z"/>
  </g>
  <g>
    <path class="st0" d="M12.71,109.18h-5.62v-14.4h5.62c4.53,0,7.65,3.11,7.65,7.16v.04c0,4.05-3.13,7.2-7.65,7.2ZM17.05,101.98c0-2.55-1.75-4.34-4.34-4.34h-2.45v8.68h2.45c2.59,0,4.34-1.75,4.34-4.3v-.04Z"/>
    <path class="st0" d="M25.23,109.18v-14.4h10.86v2.82h-7.72v2.92h6.79v2.82h-6.79v3.02h7.82v2.82h-10.97Z"/>
    <path class="st0" d="M52.33,109.18v-9.4l-4.05,6.15h-.08l-4.01-6.09v9.34h-3.11v-14.4h3.42l3.79,6.09,3.79-6.09h3.42v14.4h-3.15Z"/>
    <path class="st0" d="M67.99,109.43c-4.45,0-7.63-3.31-7.63-7.41v-.04c0-4.09,3.23-7.45,7.67-7.45s7.63,3.31,7.63,7.41v.04c0,4.09-3.23,7.45-7.67,7.45ZM72.35,101.98c0-2.47-1.81-4.53-4.36-4.53s-4.32,2.02-4.32,4.49v.04c0,2.47,1.81,4.53,4.36,4.53s4.32-2.02,4.32-4.49v-.04Z"/>
    <path class="st0" d="M87.29,109.43c-4.24,0-7.39-3.27-7.39-7.41v-.04c0-4.09,3.08-7.45,7.51-7.45,2.72,0,4.34.91,5.68,2.22l-2.02,2.32c-1.11-1.01-2.24-1.63-3.68-1.63-2.43,0-4.18,2.02-4.18,4.49v.04c0,2.47,1.71,4.53,4.18,4.53,1.65,0,2.66-.66,3.79-1.69l2.02,2.04c-1.48,1.58-3.13,2.57-5.9,2.57Z"/>
    <path class="st0" d="M106.52,109.18l-3.09-4.61h-2.49v4.61h-3.17v-14.4h6.58c3.4,0,5.43,1.79,5.43,4.75v.04c0,2.33-1.25,3.79-3.09,4.47l3.52,5.14h-3.7ZM106.59,99.69c0-1.36-.95-2.06-2.49-2.06h-3.15v4.14h3.21c1.54,0,2.43-.82,2.43-2.04v-.04Z"/>
    <path class="st0" d="M125.43,109.18l-1.32-3.23h-6.09l-1.32,3.23h-3.23l6.17-14.51h2.92l6.17,14.51h-3.31ZM121.07,98.48l-1.91,4.67h3.83l-1.91-4.67Z"/>
    <path class="st0" d="M137.69,97.7v11.48h-3.17v-11.48h-4.38v-2.92h11.93v2.92h-4.38Z"/>
    <path class="st0" d="M146.7,109.18v-14.4h3.17v14.4h-3.17Z"/>
    <path class="st0" d="M162.28,109.43c-4.24,0-7.39-3.27-7.39-7.41v-.04c0-4.09,3.08-7.45,7.51-7.45,2.72,0,4.34.91,5.68,2.22l-2.02,2.32c-1.11-1.01-2.24-1.63-3.68-1.63-2.43,0-4.18,2.02-4.18,4.49v.04c0,2.47,1.71,4.53,4.18,4.53,1.65,0,2.66-.66,3.79-1.69l2.02,2.04c-1.48,1.58-3.13,2.57-5.9,2.57Z"/>
    <path class="st0" d="M187.75,109.43c-4.24,0-7.39-3.27-7.39-7.41v-.04c0-4.09,3.08-7.45,7.51-7.45,2.72,0,4.34.91,5.68,2.22l-2.02,2.32c-1.11-1.01-2.24-1.63-3.68-1.63-2.43,0-4.18,2.02-4.18,4.49v.04c0,2.47,1.71,4.53,4.18,4.53,1.65,0,2.66-.66,3.79-1.69l2.02,2.04c-1.48,1.58-3.13,2.57-5.9,2.57Z"/>
    <path class="st0" d="M198.24,109.18v-14.4h3.17v11.52h7.18v2.88h-10.35Z"/>
    <path class="st0" d="M218.63,109.41c-3.87,0-6.23-2.16-6.23-6.4v-8.23h3.17v8.15c0,2.35,1.17,3.56,3.11,3.56s3.11-1.17,3.11-3.46v-8.25h3.17v8.13c0,4.36-2.45,6.5-6.32,6.5Z"/>
    <path class="st0" d="M237.09,109.18h-6.85v-14.4h6.69c2.94,0,4.75,1.46,4.75,3.72v.04c0,1.63-.86,2.53-1.89,3.11,1.67.64,2.7,1.61,2.7,3.54v.04c0,2.63-2.14,3.95-5.39,3.95ZM238.53,99.04c0-.95-.74-1.48-2.08-1.48h-3.13v3.04h2.92c1.4,0,2.28-.45,2.28-1.52v-.04ZM239.33,104.8c0-.97-.72-1.56-2.34-1.56h-3.66v3.17h3.76c1.4,0,2.24-.49,2.24-1.56v-.04Z"/>
  </g>
</svg>